<svg width="49" height="48" viewBox="0 0 49 48" fill="none" xmlns="http://www.w3.org/2000/svg">
<path d="M38.9235 0H9.38507C6.93691 0 4.58903 0.972525 2.85793 2.70363C1.12682 4.43473 0.154297 6.78262 0.154297 9.23077V38.7692C0.154297 41.2174 1.12682 43.5653 2.85793 45.2964C4.58903 47.0275 6.93691 48 9.38507 48H38.9235C41.3717 48 43.7196 47.0275 45.4507 45.2964C47.1818 43.5653 48.1543 41.2174 48.1543 38.7692V9.23077C48.1543 6.78262 47.1818 4.43473 45.4507 2.70363C43.7196 0.972525 41.3717 0 38.9235 0ZM9.38507 3.69231H38.9235C40.3924 3.69231 41.8011 4.27582 42.8398 5.31449C43.8785 6.35315 44.462 7.76188 44.462 9.23077V27.6923H33.5143C32.6006 27.692 31.7011 27.9177 30.8958 28.3493C30.0905 28.7809 29.4045 29.4051 28.8989 30.1662L26.8497 33.2308H21.4589L19.4097 30.1662C18.9041 29.4051 18.2181 28.7809 17.4128 28.3493C16.6075 27.9177 15.708 27.692 14.7943 27.6923H3.8466V9.23077C3.8466 7.76188 4.43012 6.35315 5.46878 5.31449C6.50745 4.27582 7.91617 3.69231 9.38507 3.69231ZM44.462 38.7692C44.462 40.2381 43.8785 41.6469 42.8398 42.6855C41.8011 43.7242 40.3924 44.3077 38.9235 44.3077H9.38507C7.91617 44.3077 6.50745 43.7242 5.46878 42.6855C4.43012 41.6469 3.8466 40.2381 3.8466 38.7692V31.3846H14.7943C15.0984 31.3862 15.3974 31.4628 15.6647 31.6078C15.932 31.7527 16.1594 31.9614 16.3266 32.2154L18.9297 36.0923C19.0969 36.3463 19.3243 36.555 19.5916 36.6999C19.8589 36.8448 20.1579 36.9215 20.462 36.9231H27.8466C28.1507 36.9215 28.4497 36.8448 28.717 36.6999C28.9843 36.555 29.2117 36.3463 29.3789 36.0923L31.982 32.2154C32.1492 31.9614 32.3766 31.7527 32.6439 31.6078C32.9112 31.4628 33.2102 31.3862 33.5143 31.3846H44.462V38.7692Z" fill="#9A9AB0"/>
</svg>
