<svg width="46" height="45" viewBox="0 0 46 45" fill="none" xmlns="http://www.w3.org/2000/svg">
<path d="M14.4725 24.5454H6.29066C4.6632 24.5454 3.10239 25.1919 1.9516 26.3427C0.800805 27.4935 0.154297 29.0543 0.154297 30.6818V38.8636C0.154297 40.4911 0.800805 42.0519 1.9516 43.2027C3.10239 44.3534 4.6632 45 6.29066 45H14.4725C16.0999 45 17.6608 44.3534 18.8115 43.2027C19.9623 42.0519 20.6088 40.4911 20.6088 38.8636V30.6818C20.6088 29.0543 19.9623 27.4935 18.8115 26.3427C17.6608 25.1919 16.0999 24.5454 14.4725 24.5454ZM16.5179 38.8636C16.5179 39.4061 16.3024 39.9264 15.9188 40.3099C15.5352 40.6935 15.015 40.909 14.4725 40.909H6.29066C5.74817 40.909 5.2279 40.6935 4.84431 40.3099C4.46071 39.9264 4.24521 39.4061 4.24521 38.8636V30.6818C4.24521 30.1393 4.46071 29.619 4.84431 29.2354C5.2279 28.8518 5.74817 28.6363 6.29066 28.6363H14.4725C15.015 28.6363 15.5352 28.8518 15.9188 29.2354C16.3024 29.619 16.5179 30.1393 16.5179 30.6818V38.8636Z" fill="#9A9AB0"/>
<path d="M39.0179 0H30.8361C29.2086 0 27.6478 0.646508 26.497 1.7973C25.3462 2.94809 24.6997 4.5089 24.6997 6.13636V14.3182C24.6997 15.9456 25.3462 17.5065 26.497 18.6572C27.6478 19.808 29.2086 20.4545 30.8361 20.4545H39.0179C40.6454 20.4545 42.2062 19.808 43.357 18.6572C44.5077 17.5065 45.1543 15.9456 45.1543 14.3182V6.13636C45.1543 4.5089 44.5077 2.94809 43.357 1.7973C42.2062 0.646508 40.6454 0 39.0179 0ZM41.0633 14.3182C41.0633 14.8607 40.8478 15.3809 40.4642 15.7645C40.0806 16.1481 39.5604 16.3636 39.0179 16.3636H30.8361C30.2936 16.3636 29.7733 16.1481 29.3897 15.7645C29.0061 15.3809 28.7906 14.8607 28.7906 14.3182V6.13636C28.7906 5.59388 29.0061 5.07361 29.3897 4.69001C29.7733 4.30641 30.2936 4.09091 30.8361 4.09091H39.0179C39.5604 4.09091 40.0806 4.30641 40.4642 4.69001C40.8478 5.07361 41.0633 5.59388 41.0633 6.13636V14.3182Z" fill="#9A9AB0"/>
<path d="M14.4725 0H6.29066C4.6632 0 3.10239 0.646508 1.9516 1.7973C0.800805 2.94809 0.154297 4.5089 0.154297 6.13636V14.3182C0.154297 15.9456 0.800805 17.5065 1.9516 18.6572C3.10239 19.808 4.6632 20.4545 6.29066 20.4545H14.4725C16.0999 20.4545 17.6608 19.808 18.8115 18.6572C19.9623 17.5065 20.6088 15.9456 20.6088 14.3182V6.13636C20.6088 4.5089 19.9623 2.94809 18.8115 1.7973C17.6608 0.646508 16.0999 0 14.4725 0ZM16.5179 14.3182C16.5179 14.8607 16.3024 15.3809 15.9188 15.7645C15.5352 16.1481 15.015 16.3636 14.4725 16.3636H6.29066C5.74817 16.3636 5.2279 16.1481 4.84431 15.7645C4.46071 15.3809 4.24521 14.8607 4.24521 14.3182V6.13636C4.24521 5.59388 4.46071 5.07361 4.84431 4.69001C5.2279 4.30641 5.74817 4.09091 6.29066 4.09091H14.4725C15.015 4.09091 15.5352 4.30641 15.9188 4.69001C16.3024 5.07361 16.5179 5.59388 16.5179 6.13636V14.3182Z" fill="#9A9AB0"/>
<path d="M43.1088 32.7272H36.9724V26.5909C36.9724 26.0484 36.7569 25.5281 36.3733 25.1445C35.9897 24.7609 35.4695 24.5454 34.927 24.5454C34.3845 24.5454 33.8642 24.7609 33.4806 25.1445C33.097 25.5281 32.8815 26.0484 32.8815 26.5909V32.7272H26.7452C26.2027 32.7272 25.6824 32.9427 25.2988 33.3263C24.9152 33.7099 24.6997 34.2302 24.6997 34.7727C24.6997 35.3152 24.9152 35.8354 25.2988 36.219C25.6824 36.6026 26.2027 36.8181 26.7452 36.8181H32.8815V42.9545C32.8815 43.497 33.097 44.0173 33.4806 44.4009C33.8642 44.7845 34.3845 45 34.927 45C35.4695 45 35.9897 44.7845 36.3733 44.4009C36.7569 44.0173 36.9724 43.497 36.9724 42.9545V36.8181H43.1088C43.6513 36.8181 44.1716 36.6026 44.5552 36.219C44.9388 35.8354 45.1543 35.3152 45.1543 34.7727C45.1543 34.2302 44.9388 33.7099 44.5552 33.3263C44.1716 32.9427 43.6513 32.7272 43.1088 32.7272Z" fill="#9A9AB0"/>
</svg>
