<svg width="58" height="57" viewBox="0 0 58 57" fill="none" xmlns="http://www.w3.org/2000/svg">
<path d="M55.8133 0.0102497L37.7586 2.3653C18.5395 -0.140207 19.6769 0.00146229 19.5487 0.00146229C19.4221 0.00181854 20.533 -0.136644 1.18825 2.38537C0.596878 2.46244 0.154297 2.96641 0.154297 3.56277V46.3128C0.154297 47.0304 0.786641 47.5833 1.49546 47.4903L19.5502 45.1354L26.3127 46.0174C26.7703 52.1504 31.9065 57.0003 38.1543 57.0003C44.4374 57.0003 49.5955 52.0952 50.0025 45.9134L56.1205 45.1153C56.7118 45.0382 57.1543 44.5341 57.1543 43.9378V1.18777C57.1543 0.473494 56.5266 -0.0822565 55.8133 0.0102497ZM2.5293 4.60552L18.3627 2.54034V42.8953L2.5293 44.9605V4.60552ZM20.7377 2.54034L36.5711 4.60552V33.3556C31.3434 34.0302 27.0575 38.208 26.3732 43.6303L20.7377 42.8953V2.54034ZM38.1543 54.6254C32.9161 54.6254 28.6543 50.3637 28.6543 45.1254C28.6543 40.0089 32.6935 35.8187 37.8017 35.6326C37.8017 35.6326 37.8017 35.6326 37.8018 35.6326C43.1794 35.4406 47.6543 39.8066 47.6543 45.1254C47.6543 50.3637 43.3927 54.6254 38.1543 54.6254ZM54.7793 42.8953L49.923 43.5288C49.18 37.9561 44.5547 33.6312 38.946 33.2763V4.60552L54.7793 2.54034V42.8953Z" fill="#9A9AB0"/>
<path fill-rule="evenodd" clip-rule="evenodd" d="M1.49546 47.4903L19.5502 45.1354L26.3127 46.0174C26.7703 52.1504 31.9065 57.0003 38.1543 57.0003C44.4374 57.0003 49.5955 52.0952 50.0025 45.9134L56.1205 45.1153C56.7118 45.0382 57.1543 44.5341 57.1543 43.9378V1.18777C57.1543 0.844384 57.0092 0.537632 56.7793 0.321935C56.7602 0.304058 56.7406 0.286806 56.7204 0.270211C56.4775 0.0705417 56.1552 -0.0340982 55.8133 0.0102497L37.7586 2.3653C19.667 0.00678134 19.6135 -0.00604921 19.5625 0.000562647C19.5594 0.000974713 19.5562 0.00146229 19.5487 0.00146229C19.5414 0.00148266 19.5382 0.00104951 19.535 0.000685562C19.4822 -0.00531814 19.4273 0.00750518 1.18825 2.38537C0.596878 2.46244 0.154297 2.96641 0.154297 3.56277V46.3128C0.154297 46.6569 0.299735 46.9632 0.529297 47.1785C0.548473 47.1965 0.568237 47.2138 0.588551 47.2305C0.832133 47.4306 1.15497 47.535 1.49546 47.4903ZM37.8017 35.6326C32.6935 35.8187 28.6543 40.0089 28.6543 45.1254C28.6543 50.3637 32.9161 54.6254 38.1543 54.6254C43.3927 54.6254 47.6543 50.3637 47.6543 45.1254C47.6543 39.8066 43.1793 35.4406 37.8017 35.6326ZM2.5293 4.60552L18.3627 2.54034V42.8953L2.5293 44.9605V4.60552ZM20.7377 2.54034V42.8953L26.3728 43.6303C26.377 43.5971 26.3817 43.564 26.3862 43.5309C27.11 38.157 31.3754 34.0261 36.5711 33.3556V4.60552L20.7377 2.54034ZM54.7793 42.8953L49.9237 43.5287C49.1807 37.956 44.5547 33.6312 38.946 33.2763V4.60552L54.7793 2.54034V42.8953Z" fill="#9A9AB0"/>
<path d="M43.1926 43.9379H39.3418V40.0872C39.3418 39.4314 38.8102 38.8997 38.1543 38.8997C37.4986 38.8997 36.9668 39.4314 36.9668 40.0872V43.9379H33.1162C32.4604 43.9379 31.9287 44.4696 31.9287 45.1254C31.9287 45.7811 32.4604 46.3129 33.1162 46.3129H36.9668V50.1636C36.9668 50.8193 37.4986 51.3511 38.1543 51.3511C38.8102 51.3511 39.3418 50.8193 39.3418 50.1636V46.3129H43.1926C43.8484 46.3129 44.3801 45.7811 44.3801 45.1254C44.3801 44.4696 43.8484 43.9379 43.1926 43.9379Z" fill="#9A9AB0"/>
<path fill-rule="evenodd" clip-rule="evenodd" d="M43.1926 43.9379C43.8484 43.9379 44.3801 44.4696 44.3801 45.1254C44.3801 45.7811 43.8484 46.3129 43.1926 46.3129H39.3418V50.1636C39.3418 50.8193 38.8102 51.3511 38.1543 51.3511C37.4986 51.3511 36.9668 50.8193 36.9668 50.1636V46.3129H33.1162C32.4604 46.3129 31.9287 45.7811 31.9287 45.1254C31.9287 44.4696 32.4604 43.9379 33.1162 43.9379H36.9668V40.0872C36.9668 39.4314 37.4986 38.8997 38.1543 38.8997C38.8102 38.8997 39.3418 39.4314 39.3418 40.0872V43.9379H43.1926Z" fill="#9A9AB0"/>
</svg>
